# xmcd CD database file
#
# Track frame offsets:
#	150
#	15017
#	27925
#	41052
#	59877
#	88452
#	109827
#	127025
#	140780
#	152917
#	167745
#	186165
#	199675
#
# Disc length: 2995 seconds
#
# Revision: 1
# Processed by: cddbd v1.5.2PL0 Copyright (c) Steve Scherf et al.
# Submitted via: CDex 1.70beta2
#
DISCID=bd0bb10d
DTITLE=Ralph Schweizer Big Band - DAY dream
DYEAR=2002
DGENRE=Jazz
TTITLE0=Harlem Speaks
TTITLE1=Black and Tan Fantasy
TTITLE2=Don't Get Around Much Anymore
TTITLE3=Cottontail
TTITLE4=Day Dream
TTITLE5=Imagine My Frustration
TTITLE6=Sunset and the Mocking Bird
TTITLE7=Lightning Bugs and Frogs
TTITLE8=Le Sucrier Velours
TTITLE9=Northern Lights
TTITLE10=The Single Petal of Rose
TTITLE11=Apes and Peacocks
TTITLE12=Things Ain't What They Used To Be
EXTD=YEAR: 2002
EXTT0=
EXTT1=
EXTT2=
EXTT3=
EXTT4=
EXTT5=
EXTT6=
EXTT7=
EXTT8=
EXTT9=
EXTT10=
EXTT11=
EXTT12=
PLAYORDER=
